<svg id="kayttaja_vakioikoni" xmlns="http://www.w3.org/2000/svg" width="20.011" height="21.407" viewBox="0 0 20.011 21.407">
  <path id="Subtraction_4" data-name="Subtraction 4" d="M9,18.01a9,9,0,1,1,9-9A9.015,9.015,0,0,1,9,18.01ZM9,5c-4.414,0-8,2.244-8,5s3.591,5,8,5,8-2.244,8-5S13.418,5,9,5Zm1-3h0V3h2V2h-2ZM6,2H6V3H8V2H6Z" transform="translate(1 1.001)" fill="#8e8e93"/>
  <circle id="Ellipse_357" data-name="Ellipse 357" cx="1.501" cy="1.501" r="1.501" fill="#8e8e93"/>
  <rect id="Rectangle_260" data-name="Rectangle 260" width="2.001" height="6.434" rx="1.001" transform="translate(0 7.004)" fill="#8e8e93"/>
  <rect id="Rectangle_261" data-name="Rectangle 261" width="2.001" height="6.434" rx="1.001" transform="translate(18.01 7.004)" fill="#8e8e93"/>
  <path id="Path_1022" data-name="Path 1022" d="M0,0H1V3.467L0,5.128Z" transform="translate(1.001 1.001)" fill="#8e8e93"/>
  <rect id="Rectangle_265" data-name="Rectangle 265" width="2.001" height="4.002" rx="1.001" transform="translate(7.004 8.004)" fill="#8e8e93"/>
  <rect id="Rectangle_266" data-name="Rectangle 266" width="2.001" height="4.002" rx="1.001" transform="translate(11.006 8.004)" fill="#8e8e93"/>
  <path id="Subtraction_5" data-name="Subtraction 5" d="M13.866,4.4H0A4.953,4.953,0,0,1,2.325,1.266,8.627,8.627,0,0,1,6.933,0,8.627,8.627,0,0,1,11.54,1.266,4.955,4.955,0,0,1,13.865,4.4Z" transform="translate(3.073 17.009)" fill="#8e8e93"/>
</svg>
