<svg id="pikkuraketti" xmlns="http://www.w3.org/2000/svg" width="53.156" height="47.794" viewBox="0 0 53.156 47.794">
  <path id="Spaceship" d="M20.1,47.794V46.106H32.91v1.688Zm5.709-2.89-5.973,0V8.762c.028-.087,3.146-8.64,6.483-8.76.023,0,.049,0,.072,0,3.339,0,6.927,8.2,6.962,8.282V44.9l-5.513,0V29.847H25.814V44.9ZM31,10.035V8.272L26.733,4.4,22.112,8.272v1.763l4.621-1.761Zm4.149,32.04V14.367a52.27,52.27,0,0,0,4.522,13.48c1.535,1.936,2.285,2.815,8.958,7.291,3.968,2.877,5.4,6.937,4.008,6.937Zm-34.629,0c-1.394,0,.039-4.06,4.01-6.937,6.67-4.476,7.42-5.355,8.958-7.291a52.424,52.424,0,0,0,4.519-13.48V42.075Z" fill="#f4f4fa"/>
</svg>
