<svg xmlns="http://www.w3.org/2000/svg" width="176.711" height="176.711" viewBox="0 0 176.711 176.711">
  <g id="Spaceship" transform="translate(-894.082 -1763.77) rotate(45)">
    <path id="Spaceship-2" data-name="Spaceship" d="M45.429,129.78V125.2H74.374v4.584Zm12.9-7.848-13.5-.005V23.791C44.9,23.556,51.943.33,59.483.005A1.615,1.615,0,0,1,59.645,0C67.19,0,75.3,22.263,75.378,22.488v99.433l-12.458.005V81.047H58.337v40.885ZM70.057,27.249V22.462L60.414,11.956,49.97,22.462v4.788l10.443-4.782Zm9.376,87V39.011s3.029,20.573,10.218,36.605c3.469,5.258,5.164,7.644,20.244,19.8,8.968,7.812,12.207,18.836,9.057,18.836Zm-78.258,0c-3.15,0,.089-11.024,9.062-18.836,15.074-12.154,16.769-14.54,20.243-19.8,7.179-16.032,10.213-36.605,10.213-36.605v75.24Z" transform="translate(1944.275 550.072)" fill="#4ecbfe"/>
  </g>
</svg>
